<svg xmlns="http://www.w3.org/2000/svg" xmlns:xlink="http://www.w3.org/1999/xlink" version="1.1" width="1000" height="1000" viewBox="0 0 1000 1000" xml:space="preserve">
<desc>Created with Fabric.js 3.5.0</desc>
<defs>
</defs>
<rect x="0" y="0" width="100%" height="100%" fill="#ffffcc"/>
<g transform="matrix(1.1967 0 0 1.6803 465.8328 513.6501)" id="653861">
<g style="" vector-effect="non-scaling-stroke">
		<g transform="matrix(0.1333 0 0 -0.1333 -198.2186 -15.0316)">
<path style="stroke: none; stroke-width: 1; stroke-dasharray: none; stroke-linecap: butt; stroke-dashoffset: 0; stroke-linejoin: miter; stroke-miterlimit: 4; is-custom-font: none; font-file-url: none; fill: rgb(0,0,0); fill-rule: nonzero; opacity: 1;" transform=" translate(-3513.5, -3112.5502)" d="M 3226 3838 c -9 -12 -17 -32 -17 -43 c -1 -16 -2 -17 -6 -3 c -2 9 1 26 7 37 c 7 13 7 21 1 21 c -14 0 -34 -78 -27 -106 c 5 -17 1 -26 -16 -35 c -27 -13 -108 -96 -108 -110 c 0 -5 9 -4 20 3 c 29 18 72 -1 93 -42 c 14 -27 17 -50 14 -100 c -6 -84 -19 -111 -68 -134 c -51 -25 -115 -94 -142 -154 c -16 -36 -22 -67 -22 -127 c 0 -90 19 -141 80 -212 c 19 -23 35 -47 35 -55 c 0 -7 -19 -23 -41 -36 c -22 -13 -39 -25 -37 -27 c 1 -1 48 1 103 6 c 183 17 387 -7 549 -65 c 157 -56 270 -128 379 -240 l 49 -51 l -30 50 c -39 63 -138 164 -217 220 c -33 24 -107 69 -165 100 c -58 31 -125 72 -150 90 c -100 74 -182 184 -219 291 c -25 76 -38 52 -23 -46 c 13 -86 52 -173 100 -224 l 37 -39 l -50 6 c -73 9 -114 23 -175 59 c -75 45 -114 118 -107 199 c 3 30 14 74 26 97 c 24 47 86 97 133 107 c 67 15 81 159 34 342 c -35 137 -34 148 13 194 c 22 20 37 40 34 43 c -15 14 -34 4 -58 -31 c -14 -21 -25 -33 -25 -27 c 0 6 9 23 21 38 c 16 21 17 26 5 26 c -8 0 -22 -10 -30 -22 z m -46 -189 c 0 -5 -7 -9 -15 -9 c -15 0 -20 12 -9 23 c 8 8 24 -1 24 -14 z" stroke-linecap="round"/>
</g>
		<g transform="matrix(0.1333 0 0 -0.1333 -49.2824 -51.6771)">
<path style="stroke: none; stroke-width: 1; stroke-dasharray: none; stroke-linecap: butt; stroke-dashoffset: 0; stroke-linejoin: miter; stroke-miterlimit: 4; is-custom-font: none; font-file-url: none; fill: rgb(0,0,0); fill-rule: nonzero; opacity: 1;" transform=" translate(-4630.459, -3387.5)" d="M 4763 3674 c -22 -22 -25 -32 -20 -70 l 5 -44 l -70 0 c -38 0 -78 -4 -88 -10 c -28 -15 -40 -64 -40 -161 c 0 -88 0 -89 -25 -89 l -25 0 l 0 130 l 0 130 l -30 0 l -30 0 l 0 -165 l 0 -165 l 90 0 l 89 0 l 3 133 c 3 124 4 132 23 132 c 19 0 20 -8 23 -132 l 3 -133 l 34 0 l 35 0 l 0 136 c 0 124 2 135 18 132 c 15 -3 17 -19 20 -136 l 3 -132 l 29 0 l 30 0 l 0 81 c 0 60 3 80 13 77 c 8 -3 13 -36 15 -105 c 3 -99 2 -101 -24 -122 c -25 -20 -39 -21 -216 -21 c -186 0 -189 0 -213 24 c -31 31 -38 71 -33 204 c 2 86 7 114 20 129 c 16 17 16 20 -1 42 c -24 31 -47 22 -67 -25 c -12 -29 -15 -70 -12 -190 c 3 -170 10 -188 79 -229 c 31 -18 52 -20 229 -20 c 172 0 199 2 234 19 c 60 30 79 82 74 206 c -3 88 -6 101 -27 124 c -14 14 -35 26 -48 26 c -18 0 -23 5 -23 25 c 0 21 5 25 30 25 c 27 0 30 3 30 29 c 0 28 -3 30 -42 33 c -23 2 -43 8 -45 13 c -2 6 16 9 45 7 c 57 -4 82 14 82 57 c 0 43 -28 61 -94 61 c -48 0 -61 -4 -83 -26 z m 112 -34 c 3 -5 -3 -10 -15 -10 c -12 0 -18 5 -15 10 c 3 6 10 10 15 10 c 5 0 12 -4 15 -10 z" stroke-linecap="round"/>
</g>
		<g transform="matrix(0.1333 0 0 -0.1333 195.7457 -81.5765)">
<path style="stroke: none; stroke-width: 1; stroke-dasharray: none; stroke-linecap: butt; stroke-dashoffset: 0; stroke-linejoin: miter; stroke-miterlimit: 4; is-custom-font: none; font-file-url: none; fill: rgb(0,0,0); fill-rule: nonzero; opacity: 1;" transform=" translate(-6468.1052, -3611.8115)" d="M 6432 3648 c -20 -20 -14 -66 9 -79 c 44 -23 93 26 69 71 c -12 23 -58 28 -78 8 z" stroke-linecap="round"/>
</g>
		<g transform="matrix(0.1333 0 0 -0.1333 41.3289 -53.3192)">
<path style="stroke: none; stroke-width: 1; stroke-dasharray: none; stroke-linecap: butt; stroke-dashoffset: 0; stroke-linejoin: miter; stroke-miterlimit: 4; is-custom-font: none; font-file-url: none; fill: rgb(0,0,0); fill-rule: nonzero; opacity: 1;" transform=" translate(-5310.0168, -3399.8318)" d="M 5304 3627 c -21 -18 -28 -35 -32 -75 l -5 -52 l -63 0 l -64 0 l 0 -59 c 0 -32 -7 -75 -15 -94 c -31 -75 -12 -161 40 -185 c 50 -23 120 -5 144 35 c 9 15 10 12 11 -14 c 0 -41 26 -44 66 -10 c 20 18 28 35 31 73 c 7 71 -15 118 -61 134 c -48 16 -50 47 -3 52 c 28 3 32 7 35 36 c 3 27 0 32 -18 32 c -25 0 -34 21 -26 55 c 5 20 13 25 39 25 c 18 0 38 -5 45 -12 c 9 -9 12 -70 12 -215 l 0 -203 l 35 0 l 35 0 l 0 210 c 0 272 -8 290 -124 290 c -43 0 -61 -5 -82 -23 z m -54 -217 c 0 -13 -7 -20 -20 -20 c -13 0 -20 7 -20 20 c 0 13 7 20 20 20 c 13 0 20 -7 20 -20 z m 0 -124 c 0 -46 -9 -66 -29 -66 c -25 0 -41 20 -41 50 c 0 32 17 50 47 50 c 20 0 23 -5 23 -34 z m 98 -24 c -5 -59 -28 -52 -28 8 c 0 46 2 51 16 40 c 9 -9 14 -26 12 -48 z" stroke-linecap="round"/>
</g>
		<g transform="matrix(0.1333 0 0 -0.1333 -278.9319 -62.4577)">
<path style="stroke: none; stroke-width: 1; stroke-dasharray: none; stroke-linecap: butt; stroke-dashoffset: 0; stroke-linejoin: miter; stroke-miterlimit: 4; is-custom-font: none; font-file-url: none; fill: rgb(0,0,0); fill-rule: nonzero; opacity: 1;" transform=" translate(-2908.0378, -3468.3975)" d="M 2800 3590 c 0 -49 43 -107 161 -217 c 80 -74 73 -55 -22 62 c -31 38 -70 92 -86 119 c -32 55 -53 69 -53 36 z" stroke-linecap="round"/>
</g>
		<g transform="matrix(0.1333 0 0 -0.1333 -261.4942 -65.0218)">
<path style="stroke: none; stroke-width: 1; stroke-dasharray: none; stroke-linecap: butt; stroke-dashoffset: 0; stroke-linejoin: miter; stroke-miterlimit: 4; is-custom-font: none; font-file-url: none; fill: rgb(0,0,0); fill-rule: nonzero; opacity: 1;" transform=" translate(-3038.8132, -3487.6326)" d="M 2966 3588 c 7 -24 43 -81 114 -183 c 56 -79 42 -35 -26 86 c -30 52 -54 101 -54 107 c 0 7 -9 12 -21 12 c -17 0 -19 -4 -13 -22 z" stroke-linecap="round"/>
</g>
		<g transform="matrix(0.1333 0 0 -0.1333 -218.184 -64.313)">
<path style="stroke: none; stroke-width: 1; stroke-dasharray: none; stroke-linecap: butt; stroke-dashoffset: 0; stroke-linejoin: miter; stroke-miterlimit: 4; is-custom-font: none; font-file-url: none; fill: rgb(0,0,0); fill-rule: nonzero; opacity: 1;" transform=" translate(-3363.6307, -3482.3152)" d="M 3370 3588 c -5 -13 -16 -60 -24 -105 c -9 -45 -18 -95 -21 -110 c -5 -26 -4 -25 14 7 c 23 43 73 209 65 221 c -9 16 -24 10 -34 -13 z" stroke-linecap="round"/>
</g>
		<g transform="matrix(0.1333 0 0 -0.1333 -203.3379 -60.8598)">
<path style="stroke: none; stroke-width: 1; stroke-dasharray: none; stroke-linecap: butt; stroke-dashoffset: 0; stroke-linejoin: miter; stroke-miterlimit: 4; is-custom-font: none; font-file-url: none; fill: rgb(0,0,0); fill-rule: nonzero; opacity: 1;" transform=" translate(-3475, -3456.4101)" d="M 3510 3569 c -17 -24 -58 -87 -91 -141 c -33 -54 -65 -100 -70 -104 c -5 -3 -9 -10 -9 -17 c 0 -18 78 62 143 148 c 33 44 75 96 94 115 l 33 36 l -35 2 c -30 2 -38 -3 -65 -39 z" stroke-linecap="round"/>
</g>
		<g transform="matrix(0.1333 0 0 -0.1333 -172.0639 -55.3062)">
<path style="stroke: none; stroke-width: 1; stroke-dasharray: none; stroke-linecap: butt; stroke-dashoffset: 0; stroke-linejoin: miter; stroke-miterlimit: 4; is-custom-font: none; font-file-url: none; fill: rgb(0,0,0); fill-rule: nonzero; opacity: 1;" transform=" translate(-3709.5989, -3414.7527)" d="M 3771 3560 c -35 -17 -86 -48 -113 -69 c -65 -52 -272 -251 -261 -251 c 17 0 118 66 213 138 c 152 116 280 170 382 160 c 35 -3 37 -2 21 10 c -66 51 -150 55 -242 12 z" stroke-linecap="round"/>
</g>
		<g transform="matrix(0.1333 0 0 -0.1333 -294.4476 -51.763)">
<path style="stroke: none; stroke-width: 1; stroke-dasharray: none; stroke-linecap: butt; stroke-dashoffset: 0; stroke-linejoin: miter; stroke-miterlimit: 4; is-custom-font: none; font-file-url: none; fill: rgb(0,0,0); fill-rule: nonzero; opacity: 1;" transform=" translate(-2791.684, -3388.1854)" d="M 2630 3497 c 0 -47 20 -86 62 -122 c 33 -28 272 -149 261 -132 c -3 4 -49 38 -103 73 c -113 74 -170 127 -199 181 l -20 38 l -1 -38 z" stroke-linecap="round"/>
</g>
		<g transform="matrix(0.1333 0 0 -0.1333 103.993 -32.1233)">
<path style="stroke: none; stroke-width: 1; stroke-dasharray: none; stroke-linecap: butt; stroke-dashoffset: 0; stroke-linejoin: miter; stroke-miterlimit: 4; is-custom-font: none; font-file-url: none; fill: rgb(0,0,0); fill-rule: nonzero; opacity: 1;" transform=" translate(-5780, -3240.86)" d="M 5608 3483 c -34 -39 -38 -63 -38 -215 c 0 -140 2 -158 23 -198 c 27 -55 75 -81 160 -87 c 77 -6 138 9 180 47 c 43 37 57 86 57 194 c 0 109 -14 140 -70 157 c -50 15 -57 49 -10 49 c 28 0 30 3 30 35 l 0 35 l -120 0 l -120 0 l 0 -175 l 0 -175 l 35 0 l 35 0 l 0 140 c 0 133 1 140 20 140 c 19 0 20 -7 20 -140 l 0 -140 l 35 0 l 35 0 l 0 85 c 0 47 4 85 8 85 c 24 0 32 -30 32 -113 c 0 -88 0 -89 -34 -123 c -32 -32 -38 -34 -103 -34 c -80 0 -128 23 -140 67 c -5 15 -8 85 -7 155 c 0 100 4 131 17 152 c 14 20 15 30 5 51 c -13 29 -29 32 -50 8 z" stroke-linecap="round"/>
</g>
		<g transform="matrix(0.1333 0 0 -0.1333 176.0167 -37.4324)">
<path style="stroke: none; stroke-width: 1; stroke-dasharray: none; stroke-linecap: butt; stroke-dashoffset: 0; stroke-linejoin: miter; stroke-miterlimit: 4; is-custom-font: none; font-file-url: none; fill: rgb(0,0,0); fill-rule: nonzero; opacity: 1;" transform=" translate(-6320.1948, -3280.6882)" d="M 6085 3467 c -39 -39 -49 -88 -43 -196 c 4 -79 22 -107 73 -117 c 37 -7 89 15 99 41 c 10 26 7 135 -4 155 c -6 11 -28 24 -50 30 c -22 6 -40 15 -40 19 c 0 19 31 32 67 29 c 28 -2 41 -9 50 -28 c 15 -30 17 -166 3 -175 c -5 -3 -10 -22 -10 -41 l 0 -34 l 130 0 l 130 0 l 0 -45 c 0 -45 0 -45 35 -45 c 35 0 35 0 35 45 c 0 38 3 45 20 45 c 16 0 20 7 20 35 c 0 28 -4 35 -20 35 c -19 0 -20 7 -20 115 c 0 110 -1 117 -25 140 c -34 35 -102 35 -142 1 c -28 -24 -28 -26 -28 -140 l 0 -116 l -26 0 c -25 0 -26 2 -21 49 c 2 28 1 76 -3 107 c -6 47 -13 64 -40 91 c -30 30 -38 33 -95 33 c -57 0 -65 -3 -95 -33 z m 403 -144 l 3 -103 l -25 0 c -13 0 -27 7 -30 16 c -8 22 -8 179 1 188 c 4 4 16 6 28 4 c 18 -3 20 -11 23 -105 z m -328 -57 c 0 -31 -16 -50 -34 -43 c -20 8 -23 83 -3 90 c 16 6 37 -21 37 -47 z" stroke-linecap="round"/>
</g>
		<g transform="matrix(0.1333 0 0 -0.1333 271.3204 -43.3392)">
<path style="stroke: none; stroke-width: 1; stroke-dasharray: none; stroke-linecap: butt; stroke-dashoffset: 0; stroke-linejoin: miter; stroke-miterlimit: 4; is-custom-font: none; font-file-url: none; fill: rgb(0,0,0); fill-rule: nonzero; opacity: 1;" transform=" translate(-7035, -3325)" d="M 6717 3482 c -43 -27 -67 -86 -67 -170 c 0 -90 17 -134 59 -151 c 37 -16 73 -8 101 21 c 16 17 20 35 20 88 c 0 57 -3 70 -23 88 c -13 12 -30 22 -38 22 c -8 0 -20 4 -28 9 c -12 8 -12 12 -2 25 c 10 11 31 16 72 16 l 59 0 l -10 -26 c -15 -39 -12 -171 5 -203 c 30 -58 124 -66 165 -13 c 20 24 21 37 18 134 c -3 106 -3 108 19 108 c 20 0 21 -3 13 -26 c -15 -39 -12 -171 5 -203 c 30 -58 124 -66 165 -13 c 20 24 21 37 18 134 c -3 106 -3 108 20 108 c 22 0 22 -1 22 -140 l 0 -140 l 35 0 l 35 0 l 0 140 c 0 133 1 140 20 140 c 16 0 20 7 20 35 l 0 35 l -337 -1 c -301 0 -341 -2 -366 -17 z m 251 -84 c 19 -19 16 -167 -3 -174 c -30 -12 -45 15 -45 83 c 0 86 18 121 48 91 z m 220 0 c 19 -19 16 -167 -3 -174 c -30 -12 -45 15 -45 83 c 0 86 18 121 48 91 z m -433 -129 c 0 -32 -4 -44 -15 -44 c -16 0 -26 54 -16 82 c 12 30 31 6 31 -38 z" stroke-linecap="round"/>
</g>
		<g transform="matrix(0.1333 0 0 -0.1333 347.3294 -43.2725)">
<path style="stroke: none; stroke-width: 1; stroke-dasharray: none; stroke-linecap: butt; stroke-dashoffset: 0; stroke-linejoin: miter; stroke-miterlimit: 4; is-custom-font: none; font-file-url: none; fill: rgb(0,0,0); fill-rule: nonzero; opacity: 1;" transform=" translate(-7605, -3324.5)" d="M 7490 3324 l 0 -175 l 33 3 l 32 3 l 3 138 c 2 129 4 137 22 137 c 19 0 20 -7 20 -140 l 0 -140 l 30 0 l 30 0 l 0 140 l 0 140 l 30 0 c 28 0 30 3 30 35 l 0 35 l -115 0 l -115 0 l 0 -176 z" stroke-linecap="round"/>
</g>
		<g transform="matrix(0.1333 0 0 -0.1333 -166.467 -37.8149)">
<path style="stroke: none; stroke-width: 1; stroke-dasharray: none; stroke-linecap: butt; stroke-dashoffset: 0; stroke-linejoin: miter; stroke-miterlimit: 4; is-custom-font: none; font-file-url: none; fill: rgb(0,0,0); fill-rule: nonzero; opacity: 1;" transform=" translate(-3751.5838, -3283.5826)" d="M 3789 3377 c -36 -12 -104 -45 -150 -72 c -46 -27 -118 -69 -159 -93 l -75 -44 l 45 6 c 25 4 103 32 173 62 c 227 98 320 112 457 69 c 25 -7 25 -7 -5 25 c -66 72 -166 88 -286 47 z" stroke-linecap="round"/>
</g>
		<g transform="matrix(0.1333 0 0 -0.1333 -306.5867 -33.8974)">
<path style="stroke: none; stroke-width: 1; stroke-dasharray: none; stroke-linecap: butt; stroke-dashoffset: 0; stroke-linejoin: miter; stroke-miterlimit: 4; is-custom-font: none; font-file-url: none; fill: rgb(0,0,0); fill-rule: nonzero; opacity: 1;" transform=" translate(-2700.6482, -3254.2076)" d="M 2514 3315 c 24 -93 83 -119 351 -150 c 60 -7 24 10 -73 35 c -129 32 -186 57 -238 103 l -47 42 l 7 -30 z" stroke-linecap="round"/>
</g>
		<g transform="matrix(0.1333 0 0 -0.1333 -160.5461 -14.7672)">
<path style="stroke: none; stroke-width: 1; stroke-dasharray: none; stroke-linecap: butt; stroke-dashoffset: 0; stroke-linejoin: miter; stroke-miterlimit: 4; is-custom-font: none; font-file-url: none; fill: rgb(0,0,0); fill-rule: nonzero; opacity: 1;" transform=" translate(-3795.9878, -3110.7343)" d="M 3765 3179 c -40 -9 -266 -76 -295 -87 c -39 -16 91 -11 201 7 c 144 24 234 26 304 7 c 55 -14 111 -40 138 -64 c 27 -24 19 -1 -17 49 c -51 68 -118 99 -215 98 c -42 -1 -94 -5 -116 -10 z" stroke-linecap="round"/>
</g>
		<g transform="matrix(0.1333 0 0 -0.1333 -309.5309 -14.5697)">
<path style="stroke: none; stroke-width: 1; stroke-dasharray: none; stroke-linecap: butt; stroke-dashoffset: 0; stroke-linejoin: miter; stroke-miterlimit: 4; is-custom-font: none; font-file-url: none; fill: rgb(0,0,0); fill-rule: nonzero; opacity: 1;" transform=" translate(-2678.5702, -3109.26)" d="M 2470 3155 c 0 -23 49 -73 83 -84 c 18 -6 57 -12 87 -13 c 65 -2 253 12 247 19 c -3 2 -65 8 -138 13 c -150 10 -190 19 -243 55 c -26 17 -36 20 -36 10 z" stroke-linecap="round"/>
</g>
		<g transform="matrix(0.1333 0 0 -0.1333 -172.2577 2.7012)">
<path style="stroke: none; stroke-width: 1; stroke-dasharray: none; stroke-linecap: butt; stroke-dashoffset: 0; stroke-linejoin: miter; stroke-miterlimit: 4; is-custom-font: none; font-file-url: none; fill: rgb(0,0,0); fill-rule: nonzero; opacity: 1;" transform=" translate(-3708.1227, -2979.7361)" d="M 3490 2991 c 32 -19 122 -29 285 -29 c 165 -1 169 0 135 15 c -28 13 -76 18 -235 20 c -124 2 -194 0 -185 -6 z" stroke-linecap="round"/>
</g>
		<g transform="matrix(0.1333 0 0 -0.1333 -290.0016 3.933)">
<path style="stroke: none; stroke-width: 1; stroke-dasharray: none; stroke-linecap: butt; stroke-dashoffset: 0; stroke-linejoin: miter; stroke-miterlimit: 4; is-custom-font: none; font-file-url: none; fill: rgb(0,0,0); fill-rule: nonzero; opacity: 1;" transform=" translate(-2825, -2970.5)" d="M 2805 2970 l -30 -8 l 30 0 c 17 0 39 3 50 8 l 20 9 l -20 -1 c -11 0 -33 -4 -50 -8 z" stroke-linecap="round"/>
</g>
		<g transform="matrix(0.1333 0 0 -0.1333 46.839 15.8084)">
<path style="stroke: none; stroke-width: 1; stroke-dasharray: none; stroke-linecap: butt; stroke-dashoffset: 0; stroke-linejoin: miter; stroke-miterlimit: 4; is-custom-font: none; font-file-url: none; fill: rgb(0,0,0); fill-rule: nonzero; opacity: 1;" transform=" translate(-5351.2993, -2881.4297)" d="M 5326 2894 c -4 -10 -1 -24 7 -31 c 19 -19 49 -5 45 21 c -4 27 -43 34 -52 10 z" stroke-linecap="round"/>
</g>
		<g transform="matrix(0.1333 0 0 -0.1333 109.1189 16.0317)">
<path style="stroke: none; stroke-width: 1; stroke-dasharray: none; stroke-linecap: butt; stroke-dashoffset: 0; stroke-linejoin: miter; stroke-miterlimit: 4; is-custom-font: none; font-file-url: none; fill: rgb(0,0,0); fill-rule: nonzero; opacity: 1;" transform=" translate(-5818.399, -2879.7547)" d="M 5794 2895 c -8 -21 2 -45 19 -45 c 21 0 38 25 31 44 c -8 20 -43 21 -50 1 z" stroke-linecap="round"/>
</g>
		<g transform="matrix(0.1333 0 0 -0.1333 162.3893 15.7227)">
<path style="stroke: none; stroke-width: 1; stroke-dasharray: none; stroke-linecap: butt; stroke-dashoffset: 0; stroke-linejoin: miter; stroke-miterlimit: 4; is-custom-font: none; font-file-url: none; fill: rgb(0,0,0); fill-rule: nonzero; opacity: 1;" transform=" translate(-6217.9272, -2882.0728)" d="M 6197 2903 c -13 -12 -7 -41 10 -47 c 21 -9 46 16 37 37 c -6 17 -35 23 -47 10 z" stroke-linecap="round"/>
</g>
		<g transform="matrix(0.1333 0 0 -0.1333 289.056 15.7227)">
<path style="stroke: none; stroke-width: 1; stroke-dasharray: none; stroke-linecap: butt; stroke-dashoffset: 0; stroke-linejoin: miter; stroke-miterlimit: 4; is-custom-font: none; font-file-url: none; fill: rgb(0,0,0); fill-rule: nonzero; opacity: 1;" transform=" translate(-7167.9272, -2882.0728)" d="M 7147 2903 c -13 -12 -7 -41 10 -47 c 21 -9 46 16 37 37 c -6 17 -35 23 -47 10 z" stroke-linecap="round"/>
</g>
		<g transform="matrix(0.1333 0 0 -0.1333 210.1141 33.8785)">
<path style="stroke: none; stroke-width: 1; stroke-dasharray: none; stroke-linecap: butt; stroke-dashoffset: 0; stroke-linejoin: miter; stroke-miterlimit: 4; is-custom-font: none; font-file-url: none; fill: rgb(0,0,0); fill-rule: nonzero; opacity: 1;" transform=" translate(-6575.8774, -2745.8728)" d="M 6512 2877 c -20 -21 -22 -34 -22 -129 c 0 -86 3 -110 18 -128 c 24 -29 93 -38 127 -16 c 48 32 27 136 -28 136 c -27 0 -57 -37 -57 -71 c 0 -17 -4 -28 -10 -24 c -6 3 -10 50 -10 106 c 0 59 4 99 10 99 c 6 0 10 -13 10 -28 c 0 -39 21 -64 53 -64 c 41 0 57 19 57 67 c 0 55 -22 75 -82 75 c -34 0 -50 -6 -66 -23 z m 112 -33 c 9 -23 -3 -56 -17 -51 c -22 7 -21 67 2 67 c 5 0 12 -7 15 -16 z m 1 -175 c 0 -15 -7 -25 -17 -27 c -13 -3 -18 3 -18 21 c 0 13 3 27 7 31 c 13 12 28 -1 28 -25 z" stroke-linecap="round"/>
</g>
		<g transform="matrix(0.1333 0 0 -0.1333 5.9945 46.6609)">
<path style="stroke: none; stroke-width: 1; stroke-dasharray: none; stroke-linecap: butt; stroke-dashoffset: 0; stroke-linejoin: miter; stroke-miterlimit: 4; is-custom-font: none; font-file-url: none; fill: rgb(0,0,0); fill-rule: nonzero; opacity: 1;" transform=" translate(-5045, -2650)" d="M 4914 2812 c -25 -16 -34 -56 -34 -147 c 0 -153 29 -185 165 -185 c 126 0 165 28 165 121 c 0 41 -26 79 -55 79 c -8 0 -15 5 -15 10 c 0 6 5 10 10 10 c 6 0 10 9 10 20 c 0 17 -7 20 -40 20 c -33 0 -40 3 -40 20 c 0 11 7 20 15 20 c 8 0 15 9 15 20 c 0 18 -7 20 -69 20 l -69 0 l -6 -47 c -3 -27 -8 -69 -12 -95 c -5 -39 -2 -50 15 -67 c 25 -25 58 -27 89 -5 c 16 11 22 25 22 55 c 0 21 5 39 10 39 c 6 0 10 -25 10 -55 c 0 -48 2 -55 20 -55 c 15 0 20 7 20 26 c 0 42 25 22 28 -23 c 4 -59 -19 -73 -125 -73 c -114 0 -123 10 -123 138 c 0 51 5 102 10 113 c 12 22 0 52 -16 41 z m 126 -52 c 0 -11 -7 -20 -15 -20 c -8 0 -15 9 -15 20 c 0 11 7 20 15 20 c 8 0 15 -9 15 -20 z m -2 -92 c -2 -25 -8 -33 -23 -33 c -20 0 -31 25 -21 51 c 3 8 15 14 26 14 c 18 0 21 -5 18 -32 z" stroke-linecap="round"/>
</g>
		<g transform="matrix(0.1333 0 0 -0.1333 47.3302 39.3295)">
<path style="stroke: none; stroke-width: 1; stroke-dasharray: none; stroke-linecap: butt; stroke-dashoffset: 0; stroke-linejoin: miter; stroke-miterlimit: 4; is-custom-font: none; font-file-url: none; fill: rgb(0,0,0); fill-rule: nonzero; opacity: 1;" transform=" translate(-5355, -2705)" d="M 5260 2705 l 0 -115 l 95 0 l 95 0 l 0 115 c 0 108 -1 115 -20 115 c -19 0 -20 -7 -20 -95 l 0 -95 l -55 0 l -55 0 l 0 95 c 0 88 -1 95 -20 95 c -19 0 -20 -7 -20 -115 z" stroke-linecap="round"/>
</g>
		<g transform="matrix(0.1333 0 0 -0.1333 81.3303 39.3295)">
<path style="stroke: none; stroke-width: 1; stroke-dasharray: none; stroke-linecap: butt; stroke-dashoffset: 0; stroke-linejoin: miter; stroke-miterlimit: 4; is-custom-font: none; font-file-url: none; fill: rgb(0,0,0); fill-rule: nonzero; opacity: 1;" transform=" translate(-5610, -2705)" d="M 5520 2705 l 0 -115 l 90 0 l 90 0 l 0 115 c 0 108 -1 115 -20 115 c -19 0 -20 -7 -20 -95 l 0 -95 l -50 0 l -50 0 l 0 95 c 0 88 -1 95 -20 95 c -19 0 -20 -7 -20 -115 z" stroke-linecap="round"/>
</g>
		<g transform="matrix(0.1333 0 0 -0.1333 109.9975 39.3295)">
<path style="stroke: none; stroke-width: 1; stroke-dasharray: none; stroke-linecap: butt; stroke-dashoffset: 0; stroke-linejoin: miter; stroke-miterlimit: 4; is-custom-font: none; font-file-url: none; fill: rgb(0,0,0); fill-rule: nonzero; opacity: 1;" transform=" translate(-5825, -2705)" d="M 5750 2705 c 0 -108 1 -115 20 -115 c 19 0 20 7 20 96 c 0 86 2 95 18 92 c 14 -3 17 -17 20 -96 c 2 -73 6 -92 17 -92 c 12 0 15 18 15 91 c 0 82 2 91 20 96 c 11 3 20 14 20 24 c 0 17 -8 19 -75 19 l -75 0 l 0 -115 z" stroke-linecap="round"/>
</g>
		<g transform="matrix(0.1333 0 0 -0.1333 165.9941 39.3881)">
<path style="stroke: none; stroke-width: 1; stroke-dasharray: none; stroke-linecap: butt; stroke-dashoffset: 0; stroke-linejoin: miter; stroke-miterlimit: 4; is-custom-font: none; font-file-url: none; fill: rgb(0,0,0); fill-rule: nonzero; opacity: 1;" transform=" translate(-6245, -2704.5602)" d="M 6113 2808 c -28 -14 -43 -57 -43 -124 c 0 -78 45 -117 94 -81 c 13 10 17 24 14 67 c -3 53 -5 55 -36 66 c -32 10 -33 12 -17 28 c 23 23 57 17 72 -14 c 7 -14 13 -55 13 -92 c 0 -54 3 -68 15 -68 c 12 0 15 15 15 78 c 0 50 5 85 13 97 c 23 31 37 8 37 -61 c 0 -56 4 -68 25 -89 c 29 -30 58 -32 85 -5 c 16 16 20 33 20 95 c 0 62 -4 79 -20 95 c -26 26 -60 26 -60 1 c 0 -10 9 -21 20 -24 c 17 -4 20 -14 20 -71 c 0 -52 -4 -68 -16 -73 c -24 -9 -34 15 -34 89 c 0 62 -2 69 -26 85 c -21 14 -31 15 -56 5 c -20 -7 -38 -8 -54 -1 c -31 11 -53 11 -81 -3 z m 32 -144 c 0 -19 -5 -29 -15 -29 c -16 0 -25 28 -16 51 c 10 25 31 10 31 -22 z" stroke-linecap="round"/>
</g>
		<g transform="matrix(0.1333 0 0 -0.1333 238.6643 39.3295)">
<path style="stroke: none; stroke-width: 1; stroke-dasharray: none; stroke-linecap: butt; stroke-dashoffset: 0; stroke-linejoin: miter; stroke-miterlimit: 4; is-custom-font: none; font-file-url: none; fill: rgb(0,0,0); fill-rule: nonzero; opacity: 1;" transform=" translate(-6790, -2705)" d="M 6720 2705 l 0 -115 l 70 0 c 63 0 70 2 70 19 c 0 17 -8 20 -52 23 l -53 3 l -3 93 c -2 73 -6 92 -17 92 c -12 0 -15 -21 -15 -115 z" stroke-linecap="round"/>
</g>
		<g transform="matrix(0.1333 0 0 -0.1333 264.6642 39.3295)">
<path style="stroke: none; stroke-width: 1; stroke-dasharray: none; stroke-linecap: butt; stroke-dashoffset: 0; stroke-linejoin: miter; stroke-miterlimit: 4; is-custom-font: none; font-file-url: none; fill: rgb(0,0,0); fill-rule: nonzero; opacity: 1;" transform=" translate(-6985, -2705)" d="M 6910 2705 c 0 -108 1 -115 20 -115 c 19 0 20 7 20 95 c 0 78 3 95 15 95 c 12 0 15 -17 15 -95 c 0 -88 1 -95 20 -95 c 19 0 20 7 20 95 c 0 88 1 95 20 95 c 13 0 20 7 20 20 c 0 18 -7 20 -75 20 l -75 0 l 0 -115 z" stroke-linecap="round"/>
</g>
		<g transform="matrix(0.1333 0 0 -0.1333 291.3308 39.3295)">
<path style="stroke: none; stroke-width: 1; stroke-dasharray: none; stroke-linecap: butt; stroke-dashoffset: 0; stroke-linejoin: miter; stroke-miterlimit: 4; is-custom-font: none; font-file-url: none; fill: rgb(0,0,0); fill-rule: nonzero; opacity: 1;" transform=" translate(-7185, -2705)" d="M 7110 2705 c 0 -108 1 -115 20 -115 c 19 0 20 7 20 95 c 0 78 3 95 15 95 c 12 0 15 -17 15 -95 c 0 -88 1 -95 20 -95 c 19 0 20 7 20 95 c 0 88 1 95 20 95 c 13 0 20 7 20 20 c 0 18 -7 20 -75 20 l -75 0 l 0 -115 z" stroke-linecap="round"/>
</g>
</g>
</g>
</svg>